<?xml version="1.0" encoding="utf-8"?>
<!-- Generator: Adobe Illustrator 24.1.1, SVG Export Plug-In . SVG Version: 6.00 Build 0)  -->
<svg version="1.1" id="레이어_1" xmlns="http://www.w3.org/2000/svg" xmlns:xlink="http://www.w3.org/1999/xlink" x="0px"
	 y="0px" viewBox="0 0 780 780" style="enable-background:new 0 0 780 780;" xml:space="preserve">
<style type="text/css">
	.st0{fill:#92E08D;}
	.st1{fill:#B2E6BB;}
	.st2{fill:#B5785B;}
	.st3{fill:#8A5945;}
	.st4{fill:#77EE69;}
	.st5{fill:#3ACE41;}
	.st6{fill:#003633;}
	.st7{fill:#00312E;}
	.st8{fill:none;stroke:#01362D;stroke-width:20;stroke-linecap:round;stroke-linejoin:round;stroke-miterlimit:10;}
	.st9{fill:#F1ECF0;}
	.st10{fill:#F4EFF5;}
</style>
<g>
	<path class="st0" d="M190.58,653c0,0,65.82,65,195.82,65s185-65,185-65"/>
	<g>
		<path class="st1" d="M587.4,388.11c0,0-3,42.15-49,79.2c-46,37.04-75-5.11-75-5.11s-0.92,1.45-2.74,3.8h3.74l4.3,44.71
			c8.72,8.7,31.16,24.02,71.38,7.91C593.76,497.12,587.4,388.11,587.4,388.11z"/>
		<path class="st1" d="M326.71,466c-2.26-3.83-3.31-6.36-3.31-6.36s-11,15.33-68,14.05c-57-1.28-54-90.69-54-90.69
			c-4,8.94-34,93.25,27.52,130.35c43.67,26.34,69.42,12.04,80.69,1.52L316.4,466H326.71z"/>
		<path class="st2" d="M389.4,503.07c38.96,0,63.43-26.93,71.26-37.07H326.71C333.83,478.06,352.97,503.07,389.4,503.07z"/>
		<path class="st2" d="M464.4,505.63c0,0-19,52.37-75,52.37s-73-51.09-73-51.09s-2.19,3.67-6.79,7.96L290.4,653h192l-13.7-142.29
			C465.79,507.8,464.4,505.63,464.4,505.63z"/>
		<path class="st3" d="M460.66,466c-7.83,10.14-32.3,37.07-71.26,37.07c-36.43,0-55.58-25.01-62.69-37.07H316.4l-6.79,48.87
			c4.6-4.3,6.79-7.96,6.79-7.96s17,51.09,73,51.09s75-52.37,75-52.37s1.38,2.17,4.3,5.08L464.4,466H460.66z"/>
	</g>
	<path class="st1" d="M128.4,286c0,0,4.43,53.33,73,100l-8.35,20.26c0,0-55.35-9.88-66-55.57S128.4,286,128.4,286z"/>
	<path class="st1" d="M653.65,286c0,0-4.43,53.33-73,100l8.35,20.26c0,0,55.35-9.88,66-55.57S653.65,286,653.65,286z"/>
	<path class="st4" d="M199.4,357c0,0-34,65,16,105s101,4,101,4s28,40,74,40s74-41,74-41c34,27,84,19,110-17s12-79,12-79s24-6,43-21
		s42-51,22-95s-70-47-70-47s12-18,7-45s-23-51-60-63s-69,12-69,12s-14-48-70-48s-73,52-73,52s-45-45-94-5s-27,97-27,97s-47,3-67,47
		s3,77,18,95s41,23,41,23"/>
	<path class="st5" d="M128.4,253c0,0,4.43,53.33,73,100l-8.35,20.26c0,0-55.35-9.88-66-55.57S128.4,253,128.4,253z"/>
	<path class="st5" d="M648.65,253c0,0,2.76,62-77.24,90l12.59,30.26c0,0,55.35-9.88,66-55.57S648.65,253,648.65,253z"/>
	<circle class="st6" cx="298.4" cy="284" r="25"/>
	<ellipse class="st7" cx="476.9" cy="286" rx="23.5" ry="25"/>
	<path class="st5" d="M201.4,369c0,0-3,70,54,71s68-11,68-11s18,34,66,34s74-32,74-32s29,33,75,4s49-62,49-62
		s6.36,85.34-47.32,102.17C486.4,492,464.4,465,464.4,465s-19,41-75,41s-73-40-73-40s-25.96,34.09-87.48,5.04S197.4,376,201.4,369z"
		/>
	<path class="st8" d="M364.4,302c0,0,4,13,24,13s22-15,22-15"/>
	<path class="st8" d="M199.4,357c0,0-34,65,16,105s101,4,101,4s28,40,74,40s74-41,74-41c34,27,84,19,110-17s12-79,12-79s24-6,43-21
		s42-51,22-95s-70-47-70-47s12-18,7-45s-23-51-60-63s-69,12-69,12s-14-48-70-48s-73,52-73,52s-45-45-94-5s-27,97-27,97s-47,3-67,47
		s3,77,18,95s41,23,41,23"/>
	<circle class="st9" cx="529.4" cy="139" r="14"/>
	<polyline class="st8" points="316.4,466 290.4,653 482.4,653 464.4,466 	"/>
	<line class="st8" x1="172.4" y1="653" x2="587.4" y2="653"/>
	<ellipse class="st10" cx="246.4" cy="330" rx="18" ry="15"/>
	<ellipse class="st10" cx="513.4" cy="335" rx="19" ry="13"/>
</g>
</svg>
